<svg width="32" height="32" viewBox="0 0 32 32" fill="none" xmlns="http://www.w3.org/2000/svg">
<path d="M22.7897 15.8011C22.8025 14.8352 23.0653 13.8882 23.5537 13.0481C24.042 12.208 24.7402 11.5021 25.583 10.9962C25.0476 10.2496 24.3412 9.63519 23.52 9.20174C22.6987 8.7683 21.7853 8.52777 20.8522 8.49927C18.8617 8.29529 16.9321 9.6621 15.9177 9.6621C14.8838 9.6621 13.3221 8.51952 11.6405 8.5533C10.5527 8.58761 9.49262 8.89642 8.56347 9.44965C7.63431 10.0029 6.86778 10.7817 6.33857 11.7101C4.04619 15.585 5.75611 21.2798 7.95205 24.412C9.05074 25.9458 10.3348 27.659 12.0149 27.5983C13.6591 27.5317 14.2731 26.5747 16.2577 26.5747C18.2239 26.5747 18.8 27.5983 20.5142 27.5596C22.2785 27.5317 23.39 26.0191 24.4502 24.4708C25.2396 23.378 25.847 22.1701 26.25 20.892C25.225 20.4688 24.3503 19.7604 23.735 18.8551C23.1197 17.9498 22.7909 16.8876 22.7897 15.8011Z" fill="black"/>
<path d="M19.5519 6.43939C20.5138 5.312 20.9878 3.86292 20.873 2.3999C19.4034 2.5506 18.0459 3.23633 17.071 4.32046C16.5943 4.85009 16.2292 5.46625 15.9966 6.13371C15.764 6.80117 15.6684 7.50684 15.7153 8.21039C16.4503 8.21778 17.1775 8.06223 17.8421 7.75547C18.5067 7.4487 19.0913 6.99871 19.5519 6.43939Z" fill="black"/>
</svg>
