<svg width="16" height="16" viewBox="0 0 16 16" fill="none" xmlns="http://www.w3.org/2000/svg">
<path d="M14.4746 9.35444L13.3562 8.87512C12.7171 8.63545 11.9981 8.79523 11.4388 9.27456L10.1606 10.3131C7.92377 10.3131 5.6869 8.07623 5.6869 5.83937L6.72544 4.56115C7.20477 4.08183 7.36455 3.28294 7.12488 2.64384L6.64556 1.5254C6.24612 0.486858 5.20757 -0.0723592 4.08913 0.00752899L2.01204 0.247193C0.733832 0.40697 0.0947264 1.60529 0.0148382 2.8835C-0.384603 8.63545 7.36455 16.3846 13.1165 15.9852C14.3947 15.9053 15.593 15.2662 15.7528 13.988L15.9925 11.9908C16.0724 10.7924 15.5131 9.75389 14.4746 9.35444Z" fill="#FC3067"/>
</svg>
