<svg width="16" height="16" viewBox="0 0 16 16" fill="none" xmlns="http://www.w3.org/2000/svg">
<path fill-rule="evenodd" clip-rule="evenodd" d="M5.00049 0C4.4482 0 4.00049 0.447715 4.00049 1V2H4C2.34315 2 1 3.34315 1 5V13C1 14.6569 2.34315 16 4 16H12C13.6569 16 15 14.6569 15 13V5C15 3.34315 13.6569 2 12 2V1C12 0.447715 11.5523 0 11 0C10.4477 0 10 0.447715 10 1V2H6.00049V1C6.00049 0.447715 5.55277 0 5.00049 0ZM4.00049 8C4.55277 8 5.00049 7.55228 5.00049 7C5.00049 6.44772 4.55277 6 4.00049 6C3.4482 6 3.00049 6.44772 3.00049 7C3.00049 7.55228 3.4482 8 4.00049 8ZM5.00049 11C5.00049 11.5523 4.55277 12 4.00049 12C3.4482 12 3.00049 11.5523 3.00049 11C3.00049 10.4477 3.4482 10 4.00049 10C4.55277 10 5.00049 10.4477 5.00049 11ZM8.00049 8C8.55277 8 9.00049 7.55228 9.00049 7C9.00049 6.44772 8.55277 6 8.00049 6C7.4482 6 7.00049 6.44772 7.00049 7C7.00049 7.55228 7.4482 8 8.00049 8ZM9.00049 11C9.00049 11.5523 8.55277 12 8.00049 12C7.4482 12 7.00049 11.5523 7.00049 11C7.00049 10.4477 7.4482 10 8.00049 10C8.55277 10 9.00049 10.4477 9.00049 11ZM12.0005 8C12.5528 8 13.0005 7.55228 13.0005 7C13.0005 6.44772 12.5528 6 12.0005 6C11.4482 6 11.0005 6.44772 11.0005 7C11.0005 7.55228 11.4482 8 12.0005 8Z" fill="#FC3067"/>
</svg>
