<svg width="157" height="32" viewBox="0 0 157 32" fill="none" xmlns="http://www.w3.org/2000/svg">
<path opacity="0.3" fill-rule="evenodd" clip-rule="evenodd" d="M134.495 25.2823C134.495 25.2823 148.518 25.8855 152.754 22.9429C156.99 20.0003 158.011 14.1973 155.036 9.98155C152.061 5.76584 146.215 4.73381 141.979 7.67646C137.744 10.6191 134.495 25.2823 134.495 25.2823Z" fill="#FC3067"/>
<path fill-rule="evenodd" clip-rule="evenodd" d="M143.932 9.87881C143.932 13.6517 138.927 21.0044 136.341 24.5528C135.582 25.5935 134.081 25.5935 133.322 24.5528C130.736 21.0044 125.731 13.6517 125.731 9.87881C125.731 4.79108 129.806 0.666656 134.832 0.666656C139.858 0.666656 143.932 4.79108 143.932 9.87881ZM138.835 10.2758C138.835 12.3616 137.131 14.0524 135.03 14.0524C132.928 14.0524 131.225 12.3616 131.225 10.2758C131.225 8.19008 132.928 6.49925 135.03 6.49925C137.131 6.49925 138.835 8.19008 138.835 10.2758Z" fill="#FC3067"/>
<path fill-rule="evenodd" clip-rule="evenodd" d="M2.30946 4.34524C2.30946 3.4919 2.59897 2.77331 3.17799 2.18945C3.75701 1.60559 4.52335 1.31366 5.47703 1.31366C6.43071 1.31366 7.19705 1.60559 7.77607 2.18945C8.35509 2.77331 8.6446 3.4919 8.6446 4.34524C8.6446 5.19858 8.35509 5.91717 7.77607 6.50103C7.19705 7.08489 6.43071 7.37682 5.47703 7.37682C4.52335 7.37682 3.75701 7.08489 3.17799 6.50103C2.59897 5.91717 2.30946 5.19858 2.30946 4.34524ZM1.15143 27.5537C1.65097 27.2393 2.01428 26.807 2.24134 26.2568C2.46841 25.7066 2.58194 25.0947 2.58194 24.421V9.1284C2.83172 9.08348 3.20069 9.02173 3.68889 8.94313C4.17708 8.86454 4.67095 8.82524 5.17049 8.82524C5.67004 8.82524 6.11849 8.85892 6.51586 8.92629C6.91323 8.99366 7.24814 9.1284 7.52063 9.3305C7.79311 9.53261 8.00314 9.80769 8.15073 10.1558C8.29833 10.5038 8.37212 10.9586 8.37212 11.52V24.96C8.37212 25.9031 8.25859 26.7565 8.03152 27.52C7.80446 28.2835 7.48089 28.9403 7.06082 29.4905C6.64074 30.0407 6.12985 30.4673 5.52812 30.7705C4.92639 31.0737 4.25088 31.2252 3.50156 31.2252C2.50246 31.2252 1.71909 30.9277 1.15143 30.3326C0.583759 29.7375 0.288576 28.9909 0.265869 28.0926L1.15143 27.5537ZM19.8919 21.6252C20.2779 21.6252 20.7037 21.5859 21.1692 21.5073C21.6347 21.4288 21.9809 21.3221 22.208 21.1873V18.4926L19.7557 18.6947C19.1199 18.7396 18.5977 18.8744 18.1889 19.0989C17.7802 19.3235 17.5759 19.6603 17.5759 20.1095C17.5759 20.5586 17.7518 20.9235 18.1038 21.2042C18.4557 21.4849 19.0518 21.6252 19.8919 21.6252ZM19.6194 8.38734C20.8456 8.38734 21.9639 8.51085 22.9743 8.75787C23.9848 9.00489 24.8476 9.38102 25.5629 9.88629C26.2782 10.3916 26.8288 11.0315 27.2148 11.8063C27.6008 12.581 27.7938 13.4961 27.7938 14.5516V22.0968C27.7938 22.6807 27.6292 23.1579 27.3 23.5284C26.9707 23.8989 26.579 24.2189 26.1249 24.4884C24.649 25.3642 22.5713 25.8021 19.8919 25.8021C18.6885 25.8021 17.6042 25.6898 16.6392 25.4652C15.6742 25.2407 14.8454 24.9038 14.1528 24.4547C13.4603 24.0056 12.9267 23.433 12.552 22.7368C12.1774 22.0407 11.99 21.2323 11.99 20.3116C11.99 18.7621 12.4555 17.5719 13.3865 16.741C14.3175 15.9101 15.7593 15.3937 17.7121 15.1916L22.1739 14.72V14.4842C22.1739 13.833 21.8844 13.367 21.3054 13.0863C20.7264 12.8056 19.8919 12.6652 18.802 12.6652C17.9392 12.6652 17.099 12.7551 16.2816 12.9347C15.4641 13.1144 14.7262 13.3389 14.0677 13.6084C13.7725 13.4063 13.5227 13.0975 13.3184 12.6821C13.114 12.2666 13.0118 11.8344 13.0118 11.3852C13.0118 10.8014 13.1537 10.3354 13.4376 9.98734C13.7214 9.63927 14.1585 9.34173 14.7489 9.09471C15.4074 8.84769 16.1851 8.66805 17.082 8.55576C17.9789 8.44348 18.8247 8.38734 19.6194 8.38734ZM40.0289 8.38734C40.9599 8.38734 41.8738 8.51646 42.7707 8.77471C43.6676 9.03296 44.4453 9.42032 45.1038 9.93682C45.785 9.48769 46.5514 9.11717 47.4029 8.82524C48.2544 8.53331 49.2818 8.38734 50.4853 8.38734C51.3481 8.38734 52.1939 8.49962 53.0227 8.72419C53.8515 8.94875 54.5895 9.30243 55.2366 9.78524C55.8838 10.268 56.4003 10.908 56.7864 11.7052C57.1724 12.5024 57.3654 13.4737 57.3654 14.6189V25.2294C57.1383 25.2968 56.7807 25.3642 56.2925 25.4316C55.8043 25.4989 55.2991 25.5326 54.7768 25.5326C54.2773 25.5326 53.8288 25.4989 53.4315 25.4316C53.0341 25.3642 52.6992 25.2295 52.4267 25.0273C52.1542 24.8252 51.9442 24.5502 51.7966 24.2021C51.649 23.854 51.5752 23.3993 51.5752 22.8379V14.7873C51.5752 14.1137 51.3822 13.6252 50.9962 13.3221C50.6102 13.0189 50.0879 12.8673 49.4294 12.8673C49.1115 12.8673 48.7709 12.9403 48.4076 13.0863C48.0443 13.2323 47.7718 13.3838 47.5902 13.541C47.6129 13.6309 47.6242 13.7151 47.6242 13.7937V25.2294C47.3745 25.2968 47.0055 25.3642 46.5173 25.4316C46.0291 25.4989 45.5352 25.5326 45.0357 25.5326C44.5361 25.5326 44.0877 25.4989 43.6903 25.4316C43.293 25.3642 42.958 25.2295 42.6856 25.0273C42.4131 24.8252 42.203 24.5502 42.0555 24.2021C41.9079 23.854 41.8341 23.3993 41.8341 22.8379V14.7873C41.8341 14.1137 41.624 13.6252 41.204 13.3221C40.7839 13.0189 40.2787 12.8673 39.6883 12.8673C39.2796 12.8673 38.9276 12.9291 38.6324 13.0526C38.3372 13.1761 38.0875 13.294 37.8831 13.4063V25.2294C37.656 25.2968 37.2984 25.3642 36.8102 25.4316C36.322 25.4989 35.8168 25.5326 35.2946 25.5326C34.795 25.5326 34.3466 25.4989 33.9492 25.4316C33.5518 25.3642 33.2169 25.2295 32.9444 25.0273C32.672 24.8252 32.4619 24.5502 32.3143 24.2021C32.1667 23.854 32.0929 23.3993 32.0929 22.8379V12.6652C32.0929 12.0589 32.2235 11.5761 32.4846 11.2168C32.7458 10.8575 33.1034 10.5207 33.5575 10.2063C34.3295 9.66734 35.2889 9.22945 36.4356 8.89261C37.5823 8.55576 38.78 8.38734 40.0289 8.38734ZM61.7326 3.33471C61.9597 3.26734 62.323 3.19436 62.8225 3.11576C63.3221 3.03717 63.833 2.99787 64.3552 2.99787C64.8548 2.99787 65.3032 3.03155 65.7006 3.09892C66.0979 3.16629 66.4329 3.30103 66.7053 3.50313C66.9778 3.70524 67.1822 3.98032 67.3184 4.3284C67.4547 4.67647 67.5228 5.1312 67.5228 5.69261V8.99366C68.0904 8.7691 68.6297 8.6119 69.1406 8.52208C69.6515 8.43225 70.2135 8.38734 70.8266 8.38734C71.9165 8.38734 72.9496 8.57822 73.926 8.95997C74.9024 9.34173 75.7653 9.89751 76.5146 10.6273C77.2639 11.3572 77.8543 12.261 78.2857 13.3389C78.7171 14.4168 78.9328 15.6631 78.9328 17.0779C78.9328 18.5375 78.7114 19.8119 78.2687 20.901C77.8259 21.9902 77.2071 22.894 76.4124 23.6126C75.6177 24.3312 74.647 24.8758 73.5003 25.2463C72.3536 25.6168 71.0877 25.8021 69.7026 25.8021C68.204 25.8021 66.9324 25.628 65.8879 25.28C64.8434 24.9319 63.9579 24.4996 63.2312 23.9831C62.2321 23.287 61.7326 22.3887 61.7326 21.2884V3.33471ZM69.7026 21.2884C70.7471 21.2884 71.5589 20.9347 72.1379 20.2273C72.7169 19.52 73.0064 18.4702 73.0064 17.0779C73.0064 15.6631 72.7112 14.6077 72.1209 13.9116C71.5305 13.2154 70.7358 12.8673 69.7367 12.8673C69.2825 12.8673 68.8909 12.9123 68.5616 13.0021C68.2324 13.0919 67.8747 13.2266 67.4887 13.4063V20.7494C67.7385 20.9066 68.0394 21.0358 68.3913 21.1368C68.7433 21.2379 69.1804 21.2884 69.7026 21.2884ZM82.3804 4.34524C82.3804 3.4919 82.6699 2.77331 83.249 2.18945C83.828 1.60559 84.5943 1.31366 85.548 1.31366C86.5017 1.31366 87.268 1.60559 87.8471 2.18945C88.4261 2.77331 88.7156 3.4919 88.7156 4.34524C88.7156 5.19858 88.4261 5.91717 87.8471 6.50103C87.268 7.08489 86.5017 7.37682 85.548 7.37682C84.5943 7.37682 83.828 7.08489 83.249 6.50103C82.6699 5.91717 82.3804 5.19858 82.3804 4.34524ZM88.4431 25.2294C88.1933 25.2744 87.8244 25.3361 87.3362 25.4147C86.848 25.4933 86.3541 25.5326 85.8546 25.5326C85.355 25.5326 84.9066 25.4989 84.5092 25.4316C84.1118 25.3642 83.7769 25.2294 83.5044 25.0273C83.232 24.8252 83.0219 24.5501 82.8743 24.2021C82.7267 23.854 82.6529 23.3993 82.6529 22.8379V9.1284C82.9027 9.08348 83.2717 9.02173 83.7599 8.94313C84.2481 8.86454 84.7419 8.82524 85.2415 8.82524C85.741 8.82524 86.1895 8.85892 86.5868 8.92629C86.9842 8.99366 87.3191 9.1284 87.5916 9.3305C87.8641 9.53261 88.0741 9.80769 88.2217 10.1558C88.3693 10.5038 88.4431 10.9586 88.4431 11.52V25.2294ZM100.814 8.38734C101.745 8.38734 102.659 8.51646 103.556 8.77471C104.453 9.03296 105.231 9.42032 105.889 9.93682C106.571 9.48769 107.337 9.11717 108.188 8.82524C109.04 8.53331 110.067 8.38734 111.271 8.38734C112.134 8.38734 112.979 8.49962 113.808 8.72419C114.637 8.94875 115.375 9.30243 116.022 9.78524C116.669 10.268 117.186 10.908 117.572 11.7052C117.958 12.5024 118.151 13.4737 118.151 14.6189V25.2294C117.924 25.2968 117.566 25.3642 117.078 25.4316C116.59 25.4989 116.085 25.5326 115.562 25.5326C115.063 25.5326 114.614 25.4989 114.217 25.4316C113.82 25.3642 113.485 25.2295 113.212 25.0273C112.94 24.8252 112.73 24.5502 112.582 24.2021C112.435 23.854 112.361 23.3993 112.361 22.8379V14.7873C112.361 14.1137 112.168 13.6252 111.782 13.3221C111.396 13.0189 110.873 12.8673 110.215 12.8673C109.897 12.8673 109.556 12.9403 109.193 13.0863C108.83 13.2323 108.557 13.3838 108.376 13.541C108.398 13.6309 108.41 13.7151 108.41 13.7937V25.2294C108.16 25.2968 107.791 25.3642 107.303 25.4316C106.815 25.4989 106.321 25.5326 105.821 25.5326C105.322 25.5326 104.873 25.4989 104.476 25.4316C104.078 25.3642 103.744 25.2295 103.471 25.0273C103.199 24.8252 102.989 24.5502 102.841 24.2021C102.693 23.854 102.62 23.3993 102.62 22.8379V14.7873C102.62 14.1137 102.41 13.6252 101.99 13.3221C101.569 13.0189 101.064 12.8673 100.474 12.8673C100.065 12.8673 99.7132 12.9291 99.418 13.0526C99.1228 13.1761 98.873 13.294 98.6687 13.4063V25.2294C98.4416 25.2968 98.084 25.3642 97.5958 25.4316C97.1076 25.4989 96.6024 25.5326 96.0801 25.5326C95.5806 25.5326 95.1321 25.4989 94.7347 25.4316C94.3374 25.3642 94.0025 25.2295 93.73 25.0273C93.4575 24.8252 93.2475 24.5502 93.0999 24.2021C92.9523 23.854 92.8785 23.3993 92.8785 22.8379V12.6652C92.8785 12.0589 93.009 11.5761 93.2702 11.2168C93.5313 10.8575 93.8889 10.5207 94.3431 10.2063C95.1151 9.66734 96.0744 9.22945 97.2211 8.89261C98.3678 8.55576 99.5656 8.38734 100.814 8.38734Z" fill="#FC3067"/>
</svg>
