<svg width="16" height="16" viewBox="0 0 16 16" fill="none" xmlns="http://www.w3.org/2000/svg">
<g clip-path="url(#clip0_2787_1621)">
<path d="M12 2.01827C12 1.26228 12.7823 0.770586 13.4472 1.10868L15.1708 1.9851C15.679 2.24349 16 2.7717 16 3.34949V13.9817C16 14.7377 15.2177 15.2294 14.5528 14.8913L12.8292 14.0149C12.321 13.7565 12 13.2283 12 12.6505V2.01827Z" fill="#FC3067"/>
<path d="M0 2.01827C0 1.26228 0.782312 0.770586 1.44721 1.10868L3.17082 1.9851C3.679 2.24349 4 2.7717 4 3.34949V13.9817C4 14.7377 3.21769 15.2294 2.55279 14.8913L0.829179 14.0149C0.321003 13.7565 0 13.2283 0 12.6505V2.01827Z" fill="#FC3067"/>
<path d="M10 2.01827C10 1.26228 9.21769 0.770586 8.55279 1.10868L6.82918 1.9851C6.321 2.24349 6 2.7717 6 3.34949V13.9817C6 14.7377 6.78231 15.2294 7.44721 14.8913L9.17082 14.0149C9.679 13.7565 10 13.2283 10 12.6505V2.01827Z" fill="#FC3067"/>
</g>
<defs>
<clipPath id="clip0_2787_1621">
<rect width="16" height="16" fill="white"/>
</clipPath>
</defs>
</svg>
