<svg width="20" height="3" viewBox="0 0 20 3" fill="none" xmlns="http://www.w3.org/2000/svg">
<path d="M1.70312 2.896C1.34046 2.896 1.04713 2.78933 0.823125 2.576C0.609792 2.352 0.503125 2.064 0.503125 1.712C0.503125 1.37067 0.609792 1.09333 0.823125 0.88C1.04713 0.656 1.34046 0.544 1.70312 0.544C2.07646 0.544 2.36446 0.656 2.56713 0.88C2.78046 1.09333 2.88713 1.37067 2.88713 1.712C2.88713 2.064 2.78046 2.352 2.56713 2.576C2.36446 2.78933 2.07646 2.896 1.70312 2.896ZM10.0156 2.896C9.65296 2.896 9.35963 2.78933 9.13563 2.576C8.92229 2.352 8.81563 2.064 8.81563 1.712C8.81563 1.37067 8.92229 1.09333 9.13563 0.88C9.35963 0.656 9.65296 0.544 10.0156 0.544C10.389 0.544 10.677 0.656 10.8796 0.88C11.093 1.09333 11.1996 1.37067 11.1996 1.712C11.1996 2.064 11.093 2.352 10.8796 2.576C10.677 2.78933 10.389 2.896 10.0156 2.896ZM18.3281 2.896C17.9655 2.896 17.6721 2.78933 17.4481 2.576C17.2348 2.352 17.1281 2.064 17.1281 1.712C17.1281 1.37067 17.2348 1.09333 17.4481 0.88C17.6721 0.656 17.9655 0.544 18.3281 0.544C18.7015 0.544 18.9895 0.656 19.1921 0.88C19.4055 1.09333 19.5121 1.37067 19.5121 1.712C19.5121 2.064 19.4055 2.352 19.1921 2.576C18.9895 2.78933 18.7015 2.896 18.3281 2.896Z" fill="black"/>
</svg>
