<svg width="16" height="16" viewBox="0 0 16 16" fill="none" xmlns="http://www.w3.org/2000/svg">
<g clip-path="url(#clip0_2804_1866)">
<path d="M3 2C3 0.895431 3.89543 0 5 0H6C7.10457 0 8 0.895431 8 2V4H5C3.89543 4 3 3.10457 3 2Z" fill="white"/>
<path d="M13 2C13 0.895431 12.1046 0 11 0H10C8.89543 0 8 0.895431 8 2V4H11C12.1046 4 13 3.10457 13 2Z" fill="white"/>
<path fill-rule="evenodd" clip-rule="evenodd" d="M7 4H1.5C0.671573 4 0 4.67157 0 5.5V6.5C0 7.32843 0.671573 8 1.5 8H7V4ZM7 10H2V14.5C2 15.3284 2.67157 16 3.5 16H7V10ZM9 16V10H14V14.5C14 15.3284 13.3284 16 12.5 16H9ZM9 8V4H14.5C15.3284 4 16 4.67157 16 5.5V6.5C16 7.32843 15.3284 8 14.5 8H9Z" fill="white"/>
</g>
<defs>
<clipPath id="clip0_2804_1866">
<rect width="16" height="16" fill="white"/>
</clipPath>
</defs>
</svg>
