<svg width="70" height="29" viewBox="0 0 70 29" fill="none" xmlns="http://www.w3.org/2000/svg">
<path d="M0.974 10.112C0.684667 10.112 0.460667 10.0327 0.302 9.874C0.152667 9.706 0.0780001 9.47733 0.0780001 9.188V0.928C0.0780001 0.629333 0.152667 0.405333 0.302 0.255999C0.460667 0.0973326 0.684667 0.0179992 0.974 0.0179992C1.26333 0.0179992 1.48267 0.0973326 1.632 0.255999C1.79067 0.405333 1.87 0.629333 1.87 0.928V4.316H3.466L3.116 4.554L5.692 0.48C5.82267 0.284 5.972 0.153333 6.14 0.0879999C6.31733 0.0226663 6.49 0.00866624 6.658 0.0459996C6.826 0.0833331 6.97067 0.162666 7.092 0.284C7.21333 0.405333 7.27867 0.554666 7.288 0.731999C7.30667 0.909333 7.25067 1.10067 7.12 1.306L4.768 4.904L4.068 4.386C4.67467 4.47933 5.188 4.69867 5.608 5.044C6.028 5.38933 6.38733 5.87 6.686 6.486L7.834 8.838C7.95533 9.07133 7.99267 9.28133 7.946 9.468C7.90867 9.65467 7.81533 9.804 7.666 9.916C7.526 10.0187 7.36267 10.0793 7.176 10.098C6.99867 10.1167 6.82133 10.084 6.644 10C6.476 9.90667 6.34067 9.75267 6.238 9.538L5.132 7.158C4.908 6.67267 4.63733 6.32733 4.32 6.122C4.012 5.91667 3.62467 5.814 3.158 5.814H1.87V9.188C1.87 9.47733 1.79533 9.706 1.646 9.874C1.49667 10.0327 1.27267 10.112 0.974 10.112ZM12.2133 10.112C12.0079 10.112 11.8306 10.0607 11.6813 9.958C11.5319 9.846 11.4386 9.70133 11.4013 9.524C11.3733 9.33733 11.4199 9.12733 11.5413 8.894L12.6613 6.71V7.27L8.90927 1.208C8.78793 1.00267 8.7366 0.811333 8.75527 0.634C8.78327 0.447333 8.87193 0.298 9.02127 0.186C9.1706 0.0739993 9.35727 0.0179992 9.58127 0.0179992C9.8146 0.0179992 9.99193 0.0739993 10.1133 0.186C10.2439 0.298 10.3699 0.456666 10.4913 0.661999L13.5293 5.66H13.2073L15.7413 0.676C15.8346 0.498666 15.9419 0.344666 16.0633 0.213999C16.1939 0.0833325 16.3853 0.0179992 16.6373 0.0179992C16.8519 0.0179992 17.0293 0.0693327 17.1693 0.172C17.3186 0.274666 17.4119 0.419333 17.4493 0.606C17.4866 0.783333 17.4399 0.993333 17.3093 1.236L13.1233 9.454C13.0393 9.622 12.9273 9.776 12.7873 9.916C12.6566 10.0467 12.4653 10.112 12.2133 10.112ZM17.8631 12.422C17.6018 12.422 17.4011 12.352 17.2611 12.212C17.1305 12.072 17.0651 11.8713 17.0651 11.61V9.398C17.0651 8.84733 17.3451 8.572 17.9051 8.572H18.8571L17.7931 8.852C18.3251 8.32 18.7171 7.55 18.9691 6.542C19.2305 5.534 19.3611 4.25533 19.3611 2.706V1.082C19.3611 0.774 19.4405 0.540666 19.5991 0.381999C19.7671 0.213999 20.0051 0.129999 20.3131 0.129999H25.3951C25.7031 0.129999 25.9365 0.213999 26.0951 0.381999C26.2631 0.540666 26.3471 0.774 26.3471 1.082V9.244L25.6751 8.572H26.9071C27.1778 8.572 27.3831 8.642 27.5231 8.782C27.6725 8.922 27.7471 9.12733 27.7471 9.398V11.61C27.7471 12.1513 27.4858 12.422 26.9631 12.422C26.7018 12.422 26.5011 12.352 26.3611 12.212C26.2211 12.072 26.1511 11.8713 26.1511 11.61V10H18.6611V11.61C18.6611 12.1513 18.3951 12.422 17.8631 12.422ZM19.8651 8.572H24.5411V1.558H21.0271V2.874C21.0271 4.218 20.9291 5.352 20.7331 6.276C20.5465 7.2 20.2571 7.96533 19.8651 8.572ZM29.2287 10.112C29.0047 10.112 28.8227 10.0607 28.6827 9.958C28.5521 9.85533 28.4727 9.72 28.4447 9.552C28.4167 9.37467 28.4494 9.17867 28.5427 8.964L32.2387 0.773999C32.3601 0.503333 32.5047 0.312 32.6727 0.199999C32.8501 0.0786659 33.0507 0.0179992 33.2747 0.0179992C33.4894 0.0179992 33.6807 0.0786659 33.8487 0.199999C34.0261 0.312 34.1754 0.503333 34.2967 0.773999L38.0067 8.964C38.1094 9.17867 38.1467 9.37467 38.1187 9.552C38.0907 9.72933 38.0114 9.86933 37.8807 9.972C37.7501 10.0653 37.5774 10.112 37.3627 10.112C37.1014 10.112 36.8961 10.0513 36.7467 9.93C36.6067 9.79933 36.4807 9.60333 36.3687 9.342L35.4587 7.228L36.2147 7.718H30.3067L31.0627 7.228L30.1667 9.342C30.0454 9.61267 29.9194 9.80867 29.7887 9.93C29.6581 10.0513 29.4714 10.112 29.2287 10.112ZM33.2467 2.076L31.2867 6.738L30.9227 6.29H35.5987L35.2487 6.738L33.2747 2.076H33.2467ZM0.974 26.112C0.684667 26.112 0.460667 26.0327 0.302 25.874C0.152667 25.706 0.0780001 25.4773 0.0780001 25.188V17.082C0.0780001 16.774 0.157333 16.5407 0.316 16.382C0.484 16.214 0.722 16.13 1.03 16.13H7.708C8.016 16.13 8.24933 16.214 8.408 16.382C8.576 16.5407 8.66 16.774 8.66 17.082V25.188C8.66 25.4773 8.58067 25.706 8.422 25.874C8.27267 26.0327 8.05333 26.112 7.764 26.112C7.47467 26.112 7.25067 26.0327 7.092 25.874C6.94267 25.706 6.868 25.4773 6.868 25.188V17.628H1.87V25.188C1.87 25.4773 1.79533 25.706 1.646 25.874C1.49667 26.0327 1.27267 26.112 0.974 26.112ZM15.2208 26.14C14.2688 26.14 13.4334 25.93 12.7148 25.51C12.0054 25.09 11.4548 24.502 11.0628 23.746C10.6708 22.9807 10.4748 22.0847 10.4748 21.058C10.4748 20.2833 10.5868 19.588 10.8108 18.972C11.0348 18.3467 11.3521 17.8147 11.7628 17.376C12.1828 16.928 12.6821 16.5873 13.2608 16.354C13.8488 16.1113 14.5021 15.99 15.2208 15.99C16.1821 15.99 17.0174 16.2 17.7268 16.62C18.4361 17.0307 18.9868 17.614 19.3788 18.37C19.7708 19.126 19.9668 20.0173 19.9668 21.044C19.9668 21.8187 19.8548 22.5187 19.6308 23.144C19.4068 23.7693 19.0848 24.306 18.6648 24.754C18.2541 25.202 17.7548 25.5473 17.1668 25.79C16.5881 26.0233 15.9394 26.14 15.2208 26.14ZM15.2208 24.6C15.8274 24.6 16.3408 24.46 16.7608 24.18C17.1901 23.9 17.5168 23.494 17.7408 22.962C17.9741 22.43 18.0908 21.7953 18.0908 21.058C18.0908 19.938 17.8388 19.07 17.3348 18.454C16.8401 17.838 16.1354 17.53 15.2208 17.53C14.6234 17.53 14.1101 17.67 13.6808 17.95C13.2514 18.2207 12.9201 18.622 12.6868 19.154C12.4628 19.6767 12.3508 20.3113 12.3508 21.058C12.3508 22.1687 12.6028 23.0367 13.1068 23.662C13.6108 24.2873 14.3154 24.6 15.2208 24.6ZM22.5449 26.112C22.4236 26.112 22.3163 26.0933 22.2229 26.056C22.1296 26.0187 22.0503 25.9627 21.9849 25.888C21.9196 25.804 21.8683 25.706 21.8309 25.594C21.8029 25.482 21.7889 25.3513 21.7889 25.202V16.872C21.7889 16.6013 21.8589 16.3913 21.9989 16.242C22.1483 16.0927 22.3583 16.018 22.6289 16.018C22.8996 16.018 23.1049 16.0927 23.2449 16.242C23.3849 16.3913 23.4549 16.6013 23.4549 16.872V23.494H23.1329L28.4529 16.536C28.5929 16.3493 28.7283 16.2187 28.8589 16.144C28.9896 16.06 29.1623 16.018 29.3769 16.018C29.5263 16.018 29.6523 16.0507 29.7549 16.116C29.8669 16.1813 29.9509 16.2793 30.0069 16.41C30.0723 16.5313 30.1049 16.676 30.1049 16.844V25.244C30.1049 25.524 30.0349 25.7387 29.8949 25.888C29.7549 26.0373 29.5496 26.112 29.2789 26.112C29.0083 26.112 28.7983 26.0373 28.6489 25.888C28.5089 25.7387 28.4389 25.524 28.4389 25.244V18.622H28.7469L23.4409 25.58C23.2916 25.7667 23.1563 25.902 23.0349 25.986C22.9229 26.07 22.7596 26.112 22.5449 26.112ZM25.9329 15.36C25.2889 15.36 24.7429 15.2247 24.2949 14.954C23.8469 14.6833 23.5156 14.3053 23.3009 13.82C23.2263 13.6427 23.2169 13.498 23.2729 13.386C23.3289 13.2647 23.4269 13.1807 23.5669 13.134C23.7163 13.0873 23.8423 13.092 23.9449 13.148C24.0476 13.204 24.1456 13.3113 24.2389 13.47C24.4069 13.7687 24.6309 13.9973 24.9109 14.156C25.1909 14.3053 25.5363 14.38 25.9469 14.38C26.3576 14.38 26.7029 14.3053 26.9829 14.156C27.2629 13.9973 27.4869 13.7687 27.6549 13.47C27.7483 13.3113 27.8463 13.204 27.9489 13.148C28.0516 13.092 28.1776 13.0873 28.3269 13.134C28.4669 13.1807 28.5603 13.26 28.6069 13.372C28.6629 13.484 28.6489 13.6287 28.5649 13.806C28.3223 14.2913 27.9769 14.674 27.5289 14.954C27.0903 15.2247 26.5583 15.36 25.9329 15.36ZM32.1776 28.422C31.9163 28.422 31.7156 28.352 31.5756 28.212C31.4449 28.072 31.3796 27.8713 31.3796 27.61V25.398C31.3796 24.8473 31.6596 24.572 32.2196 24.572H33.1716L32.1076 24.852C32.6396 24.32 33.0316 23.55 33.2836 22.542C33.5449 21.534 33.6756 20.2553 33.6756 18.706V17.082C33.6756 16.774 33.7549 16.5407 33.9136 16.382C34.0816 16.214 34.3196 16.13 34.6276 16.13H39.7096C40.0176 16.13 40.2509 16.214 40.4096 16.382C40.5776 16.5407 40.6616 16.774 40.6616 17.082V25.244L39.9896 24.572H41.2216C41.4923 24.572 41.6976 24.642 41.8376 24.782C41.9869 24.922 42.0616 25.1273 42.0616 25.398V27.61C42.0616 28.1513 41.8003 28.422 41.2776 28.422C41.0163 28.422 40.8156 28.352 40.6756 28.212C40.5356 28.072 40.4656 27.8713 40.4656 27.61V26H32.9756V27.61C32.9756 28.1513 32.7096 28.422 32.1776 28.422ZM34.1796 24.572H38.8556V17.558H35.3416V18.874C35.3416 20.218 35.2436 21.352 35.0476 22.276C34.8609 23.2 34.5716 23.9653 34.1796 24.572ZM44.3972 26C44.0892 26 43.8512 25.9207 43.6832 25.762C43.5245 25.594 43.4452 25.356 43.4452 25.048V17.082C43.4452 16.774 43.5245 16.5407 43.6832 16.382C43.8512 16.214 44.0892 16.13 44.3972 16.13H49.3952C49.6285 16.13 49.8059 16.1907 49.9272 16.312C50.0579 16.4333 50.1232 16.606 50.1232 16.83C50.1232 17.0633 50.0579 17.2453 49.9272 17.376C49.8059 17.4973 49.6285 17.558 49.3952 17.558H45.1672V20.274H49.0872C49.3299 20.274 49.5119 20.3347 49.6332 20.456C49.7545 20.5773 49.8152 20.7547 49.8152 20.988C49.8152 21.2213 49.7545 21.3987 49.6332 21.52C49.5119 21.6413 49.3299 21.702 49.0872 21.702H45.1672V24.572H49.3952C49.6285 24.572 49.8059 24.6327 49.9272 24.754C50.0579 24.8753 50.1232 25.0527 50.1232 25.286C50.1232 25.5193 50.0579 25.6967 49.9272 25.818C49.8059 25.9393 49.6285 26 49.3952 26H44.3972ZM52.6387 26.112C52.3774 26.112 52.1767 26.0373 52.0367 25.888C51.8967 25.7387 51.8267 25.5333 51.8267 25.272V16.858C51.8267 16.5873 51.9014 16.382 52.0507 16.242C52.2 16.0927 52.4054 16.018 52.6667 16.018C52.9 16.018 53.082 16.0647 53.2127 16.158C53.3527 16.242 53.4787 16.3913 53.5907 16.606L57.0487 23.004H56.6007L60.0587 16.606C60.1707 16.3913 60.292 16.242 60.4227 16.158C60.5534 16.0647 60.7354 16.018 60.9687 16.018C61.23 16.018 61.4307 16.0927 61.5707 16.242C61.7107 16.382 61.7807 16.5873 61.7807 16.858V25.272C61.7807 25.5333 61.7107 25.7387 61.5707 25.888C61.44 26.0373 61.2394 26.112 60.9687 26.112C60.7074 26.112 60.5067 26.0373 60.3667 25.888C60.2267 25.7387 60.1567 25.5333 60.1567 25.272V18.79H60.4647L57.5247 24.152C57.4314 24.3107 57.3334 24.4273 57.2307 24.502C57.128 24.5767 56.988 24.614 56.8107 24.614C56.6334 24.614 56.4887 24.5767 56.3767 24.502C56.2647 24.418 56.1667 24.3013 56.0827 24.152L53.1147 18.776H53.4507V25.272C53.4507 25.5333 53.3807 25.7387 53.2407 25.888C53.11 26.0373 52.9094 26.112 52.6387 26.112ZM65.997 23.144C65.8197 23.144 65.6797 23.088 65.577 22.976C65.4837 22.8547 65.437 22.696 65.437 22.5C65.437 22.2107 65.4697 21.94 65.535 21.688C65.6097 21.4267 65.7263 21.1653 65.885 20.904C66.0437 20.6427 66.2537 20.3673 66.515 20.078C66.711 19.854 66.865 19.658 66.977 19.49C67.0983 19.3127 67.1823 19.1447 67.229 18.986C67.285 18.8273 67.313 18.664 67.313 18.496C67.313 18.188 67.201 17.9453 66.977 17.768C66.753 17.5907 66.4357 17.502 66.025 17.502C65.6517 17.502 65.311 17.5533 65.003 17.656C64.7043 17.7493 64.401 17.8847 64.093 18.062C63.8877 18.1833 63.701 18.2393 63.533 18.23C63.3743 18.2113 63.2437 18.1507 63.141 18.048C63.0383 17.9453 62.973 17.8193 62.945 17.67C62.917 17.5207 62.9403 17.3667 63.015 17.208C63.0897 17.0493 63.225 16.9047 63.421 16.774C63.8037 16.522 64.2423 16.3307 64.737 16.2C65.2317 16.06 65.6983 15.99 66.137 15.99C66.725 15.99 67.2383 16.088 67.677 16.284C68.125 16.48 68.4703 16.7507 68.713 17.096C68.965 17.4413 69.091 17.8473 69.091 18.314C69.091 18.6033 69.049 18.8787 68.965 19.14C68.881 19.392 68.7457 19.6487 68.559 19.91C68.3723 20.162 68.1157 20.4373 67.789 20.736C67.4997 20.9973 67.2663 21.2353 67.089 21.45C66.921 21.6647 66.795 21.87 66.711 22.066C66.6363 22.262 66.585 22.472 66.557 22.696C66.5477 22.8267 66.4917 22.934 66.389 23.018C66.2957 23.102 66.165 23.144 65.997 23.144ZM65.969 26.07C65.6517 26.07 65.395 25.972 65.199 25.776C65.0123 25.58 64.919 25.328 64.919 25.02C64.919 24.7213 65.0123 24.4787 65.199 24.292C65.395 24.096 65.6517 23.998 65.969 23.998C66.2957 23.998 66.5477 24.096 66.725 24.292C66.9117 24.4787 67.005 24.7213 67.005 25.02C67.005 25.328 66.9117 25.58 66.725 25.776C66.5477 25.972 66.2957 26.07 65.969 26.07Z" fill="#FC3067"/>
</svg>
