<svg width="262" height="33" viewBox="0 0 262 33" fill="none" xmlns="http://www.w3.org/2000/svg">
<path opacity="0.3" fill-rule="evenodd" clip-rule="evenodd" d="M135.495 25.2823C135.495 25.2823 149.518 25.8855 153.754 22.9429C157.99 20.0003 159.011 14.1973 156.036 9.98155C153.061 5.76584 147.215 4.73381 142.979 7.67646C138.744 10.6191 135.495 25.2823 135.495 25.2823Z" fill="#FC3067"/>
<path fill-rule="evenodd" clip-rule="evenodd" d="M144.932 9.87881C144.932 13.6517 139.927 21.0044 137.341 24.5528C136.582 25.5935 135.081 25.5935 134.322 24.5528C131.736 21.0044 126.731 13.6517 126.731 9.87881C126.731 4.79108 130.806 0.666656 135.832 0.666656C140.858 0.666656 144.932 4.79108 144.932 9.87881ZM139.835 10.2758C139.835 12.3616 138.131 14.0524 136.03 14.0524C133.928 14.0524 132.225 12.3616 132.225 10.2758C132.225 8.19008 133.928 6.49925 136.03 6.49925C138.131 6.49925 139.835 8.19008 139.835 10.2758Z" fill="#FC3067"/>
<path fill-rule="evenodd" clip-rule="evenodd" d="M3.30946 4.34524C3.30946 3.4919 3.59897 2.77331 4.17799 2.18945C4.75701 1.60559 5.52335 1.31366 6.47703 1.31366C7.43071 1.31366 8.19705 1.60559 8.77607 2.18945C9.35509 2.77331 9.6446 3.4919 9.6446 4.34524C9.6446 5.19858 9.35509 5.91717 8.77607 6.50103C8.19705 7.08489 7.43071 7.37682 6.47703 7.37682C5.52335 7.37682 4.75701 7.08489 4.17799 6.50103C3.59897 5.91717 3.30946 5.19858 3.30946 4.34524ZM2.15143 27.5537C2.65097 27.2393 3.01428 26.807 3.24134 26.2568C3.46841 25.7066 3.58194 25.0947 3.58194 24.421V9.1284C3.83172 9.08348 4.20069 9.02173 4.68889 8.94313C5.17708 8.86454 5.67095 8.82524 6.17049 8.82524C6.67004 8.82524 7.11849 8.85892 7.51586 8.92629C7.91323 8.99366 8.24814 9.1284 8.52063 9.3305C8.79311 9.53261 9.00314 9.80769 9.15073 10.1558C9.29833 10.5038 9.37212 10.9586 9.37212 11.52V24.96C9.37212 25.9031 9.25859 26.7565 9.03152 27.52C8.80446 28.2835 8.48089 28.9403 8.06082 29.4905C7.64074 30.0407 7.12985 30.4673 6.52812 30.7705C5.92639 31.0737 5.25088 31.2252 4.50156 31.2252C3.50246 31.2252 2.71909 30.9277 2.15143 30.3326C1.58376 29.7375 1.28858 28.9909 1.26587 28.0926L2.15143 27.5537ZM20.8919 21.6252C21.2779 21.6252 21.7037 21.5859 22.1692 21.5073C22.6347 21.4288 22.9809 21.3221 23.208 21.1873V18.4926L20.7557 18.6947C20.1199 18.7396 19.5977 18.8744 19.1889 19.0989C18.7802 19.3235 18.5759 19.6603 18.5759 20.1095C18.5759 20.5586 18.7518 20.9235 19.1038 21.2042C19.4557 21.4849 20.0518 21.6252 20.8919 21.6252ZM20.6194 8.38734C21.8456 8.38734 22.9639 8.51085 23.9743 8.75787C24.9848 9.00489 25.8476 9.38102 26.5629 9.88629C27.2782 10.3916 27.8288 11.0315 28.2148 11.8063C28.6008 12.581 28.7938 13.4961 28.7938 14.5516V22.0968C28.7938 22.6807 28.6292 23.1579 28.3 23.5284C27.9707 23.8989 27.579 24.2189 27.1249 24.4884C25.649 25.3642 23.5713 25.8021 20.8919 25.8021C19.6885 25.8021 18.6042 25.6898 17.6392 25.4652C16.6742 25.2407 15.8454 24.9038 15.1528 24.4547C14.4603 24.0056 13.9267 23.433 13.552 22.7368C13.1774 22.0407 12.99 21.2323 12.99 20.3116C12.99 18.7621 13.4555 17.5719 14.3865 16.741C15.3175 15.9101 16.7593 15.3937 18.7121 15.1916L23.1739 14.72V14.4842C23.1739 13.833 22.8844 13.367 22.3054 13.0863C21.7264 12.8056 20.8919 12.6652 19.802 12.6652C18.9392 12.6652 18.099 12.7551 17.2816 12.9347C16.4641 13.1144 15.7262 13.3389 15.0677 13.6084C14.7725 13.4063 14.5227 13.0975 14.3184 12.6821C14.114 12.2666 14.0118 11.8344 14.0118 11.3852C14.0118 10.8014 14.1537 10.3354 14.4376 9.98734C14.7214 9.63927 15.1585 9.34173 15.7489 9.09471C16.4074 8.84769 17.1851 8.66805 18.082 8.55576C18.9789 8.44348 19.8247 8.38734 20.6194 8.38734ZM41.0289 8.38734C41.9599 8.38734 42.8738 8.51646 43.7707 8.77471C44.6676 9.03296 45.4453 9.42032 46.1038 9.93682C46.785 9.48769 47.5514 9.11717 48.4029 8.82524C49.2544 8.53331 50.2818 8.38734 51.4853 8.38734C52.3481 8.38734 53.1939 8.49962 54.0227 8.72419C54.8515 8.94875 55.5895 9.30243 56.2366 9.78524C56.8838 10.268 57.4003 10.908 57.7864 11.7052C58.1724 12.5024 58.3654 13.4737 58.3654 14.6189V25.2294C58.1383 25.2968 57.7807 25.3642 57.2925 25.4316C56.8043 25.4989 56.2991 25.5326 55.7768 25.5326C55.2773 25.5326 54.8288 25.4989 54.4315 25.4316C54.0341 25.3642 53.6992 25.2295 53.4267 25.0273C53.1542 24.8252 52.9442 24.5502 52.7966 24.2021C52.649 23.854 52.5752 23.3993 52.5752 22.8379V14.7873C52.5752 14.1137 52.3822 13.6252 51.9962 13.3221C51.6102 13.0189 51.0879 12.8673 50.4294 12.8673C50.1115 12.8673 49.7709 12.9403 49.4076 13.0863C49.0443 13.2323 48.7718 13.3838 48.5902 13.541C48.6129 13.6309 48.6242 13.7151 48.6242 13.7937V25.2294C48.3745 25.2968 48.0055 25.3642 47.5173 25.4316C47.0291 25.4989 46.5352 25.5326 46.0357 25.5326C45.5361 25.5326 45.0877 25.4989 44.6903 25.4316C44.293 25.3642 43.958 25.2295 43.6856 25.0273C43.4131 24.8252 43.203 24.5502 43.0555 24.2021C42.9079 23.854 42.8341 23.3993 42.8341 22.8379V14.7873C42.8341 14.1137 42.624 13.6252 42.204 13.3221C41.7839 13.0189 41.2787 12.8673 40.6883 12.8673C40.2796 12.8673 39.9276 12.9291 39.6324 13.0526C39.3372 13.1761 39.0875 13.294 38.8831 13.4063V25.2294C38.656 25.2968 38.2984 25.3642 37.8102 25.4316C37.322 25.4989 36.8168 25.5326 36.2946 25.5326C35.795 25.5326 35.3466 25.4989 34.9492 25.4316C34.5518 25.3642 34.2169 25.2295 33.9444 25.0273C33.672 24.8252 33.4619 24.5502 33.3143 24.2021C33.1667 23.854 33.0929 23.3993 33.0929 22.8379V12.6652C33.0929 12.0589 33.2235 11.5761 33.4846 11.2168C33.7458 10.8575 34.1034 10.5207 34.5575 10.2063C35.3295 9.66734 36.2889 9.22945 37.4356 8.89261C38.5823 8.55576 39.78 8.38734 41.0289 8.38734ZM62.7326 3.33471C62.9597 3.26734 63.323 3.19436 63.8225 3.11576C64.3221 3.03717 64.833 2.99787 65.3552 2.99787C65.8548 2.99787 66.3032 3.03155 66.7006 3.09892C67.0979 3.16629 67.4329 3.30103 67.7053 3.50313C67.9778 3.70524 68.1822 3.98032 68.3184 4.3284C68.4547 4.67647 68.5228 5.1312 68.5228 5.69261V8.99366C69.0904 8.7691 69.6297 8.6119 70.1406 8.52208C70.6515 8.43225 71.2135 8.38734 71.8266 8.38734C72.9165 8.38734 73.9496 8.57822 74.926 8.95997C75.9024 9.34173 76.7653 9.89751 77.5146 10.6273C78.2639 11.3572 78.8543 12.261 79.2857 13.3389C79.7171 14.4168 79.9328 15.6631 79.9328 17.0779C79.9328 18.5375 79.7114 19.8119 79.2687 20.901C78.8259 21.9902 78.2071 22.894 77.4124 23.6126C76.6177 24.3312 75.647 24.8758 74.5003 25.2463C73.3536 25.6168 72.0877 25.8021 70.7026 25.8021C69.204 25.8021 67.9324 25.628 66.8879 25.28C65.8434 24.9319 64.9579 24.4996 64.2312 23.9831C63.2321 23.287 62.7326 22.3887 62.7326 21.2884V3.33471ZM70.7026 21.2884C71.7471 21.2884 72.5589 20.9347 73.1379 20.2273C73.7169 19.52 74.0064 18.4702 74.0064 17.0779C74.0064 15.6631 73.7112 14.6077 73.1209 13.9116C72.5305 13.2154 71.7358 12.8673 70.7367 12.8673C70.2825 12.8673 69.8909 12.9123 69.5616 13.0021C69.2324 13.0919 68.8747 13.2266 68.4887 13.4063V20.7494C68.7385 20.9066 69.0394 21.0358 69.3913 21.1368C69.7433 21.2379 70.1804 21.2884 70.7026 21.2884ZM83.3804 4.34524C83.3804 3.4919 83.6699 2.77331 84.249 2.18945C84.828 1.60559 85.5943 1.31366 86.548 1.31366C87.5017 1.31366 88.268 1.60559 88.8471 2.18945C89.4261 2.77331 89.7156 3.4919 89.7156 4.34524C89.7156 5.19858 89.4261 5.91717 88.8471 6.50103C88.268 7.08489 87.5017 7.37682 86.548 7.37682C85.5943 7.37682 84.828 7.08489 84.249 6.50103C83.6699 5.91717 83.3804 5.19858 83.3804 4.34524ZM89.4431 25.2294C89.1933 25.2744 88.8244 25.3361 88.3362 25.4147C87.848 25.4933 87.3541 25.5326 86.8546 25.5326C86.355 25.5326 85.9066 25.4989 85.5092 25.4316C85.1118 25.3642 84.7769 25.2294 84.5044 25.0273C84.232 24.8252 84.0219 24.5501 83.8743 24.2021C83.7267 23.854 83.6529 23.3993 83.6529 22.8379V9.1284C83.9027 9.08348 84.2717 9.02173 84.7599 8.94313C85.2481 8.86454 85.7419 8.82524 86.2415 8.82524C86.741 8.82524 87.1895 8.85892 87.5868 8.92629C87.9842 8.99366 88.3191 9.1284 88.5916 9.3305C88.8641 9.53261 89.0741 9.80769 89.2217 10.1558C89.3693 10.5038 89.4431 10.9586 89.4431 11.52V25.2294ZM101.814 8.38734C102.745 8.38734 103.659 8.51646 104.556 8.77471C105.453 9.03296 106.231 9.42032 106.889 9.93682C107.571 9.48769 108.337 9.11717 109.188 8.82524C110.04 8.53331 111.067 8.38734 112.271 8.38734C113.134 8.38734 113.979 8.49962 114.808 8.72419C115.637 8.94875 116.375 9.30243 117.022 9.78524C117.669 10.268 118.186 10.908 118.572 11.7052C118.958 12.5024 119.151 13.4737 119.151 14.6189V25.2294C118.924 25.2968 118.566 25.3642 118.078 25.4316C117.59 25.4989 117.085 25.5326 116.562 25.5326C116.063 25.5326 115.614 25.4989 115.217 25.4316C114.82 25.3642 114.485 25.2295 114.212 25.0273C113.94 24.8252 113.73 24.5502 113.582 24.2021C113.435 23.854 113.361 23.3993 113.361 22.8379V14.7873C113.361 14.1137 113.168 13.6252 112.782 13.3221C112.396 13.0189 111.873 12.8673 111.215 12.8673C110.897 12.8673 110.556 12.9403 110.193 13.0863C109.83 13.2323 109.557 13.3838 109.376 13.541C109.398 13.6309 109.41 13.7151 109.41 13.7937V25.2294C109.16 25.2968 108.791 25.3642 108.303 25.4316C107.815 25.4989 107.321 25.5326 106.821 25.5326C106.322 25.5326 105.873 25.4989 105.476 25.4316C105.078 25.3642 104.744 25.2295 104.471 25.0273C104.199 24.8252 103.989 24.5502 103.841 24.2021C103.693 23.854 103.62 23.3993 103.62 22.8379V14.7873C103.62 14.1137 103.41 13.6252 102.99 13.3221C102.569 13.0189 102.064 12.8673 101.474 12.8673C101.065 12.8673 100.713 12.9291 100.418 13.0526C100.123 13.1761 99.873 13.294 99.6687 13.4063V25.2294C99.4416 25.2968 99.084 25.3642 98.5958 25.4316C98.1076 25.4989 97.6024 25.5326 97.0801 25.5326C96.5806 25.5326 96.1321 25.4989 95.7347 25.4316C95.3374 25.3642 95.0025 25.2295 94.73 25.0273C94.4575 24.8252 94.2475 24.5502 94.0999 24.2021C93.9523 23.854 93.8785 23.3993 93.8785 22.8379V12.6652C93.8785 12.0589 94.009 11.5761 94.2702 11.2168C94.5313 10.8575 94.8889 10.5207 95.3431 10.2063C96.1151 9.66734 97.0744 9.22945 98.2211 8.89261C99.3678 8.55576 100.566 8.38734 101.814 8.38734Z" fill="#FC3067"/>
<path d="M192.974 14.112C192.685 14.112 192.461 14.0327 192.302 13.874C192.153 13.706 192.078 13.4773 192.078 13.188V4.928C192.078 4.62933 192.153 4.40533 192.302 4.256C192.461 4.09733 192.685 4.018 192.974 4.018C193.263 4.018 193.483 4.09733 193.632 4.256C193.791 4.40533 193.87 4.62933 193.87 4.928V8.316H195.466L195.116 8.554L197.692 4.48C197.823 4.284 197.972 4.15333 198.14 4.088C198.317 4.02267 198.49 4.00867 198.658 4.046C198.826 4.08333 198.971 4.16267 199.092 4.284C199.213 4.40533 199.279 4.55467 199.288 4.732C199.307 4.90933 199.251 5.10067 199.12 5.306L196.768 8.904L196.068 8.386C196.675 8.47933 197.188 8.69867 197.608 9.044C198.028 9.38933 198.387 9.87 198.686 10.486L199.834 12.838C199.955 13.0713 199.993 13.2813 199.946 13.468C199.909 13.6547 199.815 13.804 199.666 13.916C199.526 14.0187 199.363 14.0793 199.176 14.098C198.999 14.1167 198.821 14.084 198.644 14C198.476 13.9067 198.341 13.7527 198.238 13.538L197.132 11.158C196.908 10.6727 196.637 10.3273 196.32 10.122C196.012 9.91667 195.625 9.814 195.158 9.814H193.87V13.188C193.87 13.4773 193.795 13.706 193.646 13.874C193.497 14.0327 193.273 14.112 192.974 14.112ZM204.213 14.112C204.008 14.112 203.831 14.0607 203.681 13.958C203.532 13.846 203.439 13.7013 203.401 13.524C203.373 13.3373 203.42 13.1273 203.541 12.894L204.661 10.71V11.27L200.909 5.208C200.788 5.00267 200.737 4.81133 200.755 4.634C200.783 4.44733 200.872 4.298 201.021 4.186C201.171 4.074 201.357 4.018 201.581 4.018C201.815 4.018 201.992 4.074 202.113 4.186C202.244 4.298 202.37 4.45667 202.491 4.662L205.529 9.66H205.207L207.741 4.676C207.835 4.49867 207.942 4.34467 208.063 4.214C208.194 4.08333 208.385 4.018 208.637 4.018C208.852 4.018 209.029 4.06933 209.169 4.172C209.319 4.27467 209.412 4.41933 209.449 4.606C209.487 4.78333 209.44 4.99333 209.309 5.236L205.123 13.454C205.039 13.622 204.927 13.776 204.787 13.916C204.657 14.0467 204.465 14.112 204.213 14.112ZM209.863 16.422C209.602 16.422 209.401 16.352 209.261 16.212C209.13 16.072 209.065 15.8713 209.065 15.61V13.398C209.065 12.8473 209.345 12.572 209.905 12.572H210.857L209.793 12.852C210.325 12.32 210.717 11.55 210.969 10.542C211.23 9.534 211.361 8.25533 211.361 6.706V5.082C211.361 4.774 211.44 4.54067 211.599 4.382C211.767 4.214 212.005 4.13 212.313 4.13H217.395C217.703 4.13 217.936 4.214 218.095 4.382C218.263 4.54067 218.347 4.774 218.347 5.082V13.244L217.675 12.572H218.907C219.178 12.572 219.383 12.642 219.523 12.782C219.672 12.922 219.747 13.1273 219.747 13.398V15.61C219.747 16.1513 219.486 16.422 218.963 16.422C218.702 16.422 218.501 16.352 218.361 16.212C218.221 16.072 218.151 15.8713 218.151 15.61V14H210.661V15.61C210.661 16.1513 210.395 16.422 209.863 16.422ZM211.865 12.572H216.541V5.558H213.027V6.874C213.027 8.218 212.929 9.352 212.733 10.276C212.546 11.2 212.257 11.9653 211.865 12.572ZM221.229 14.112C221.005 14.112 220.823 14.0607 220.683 13.958C220.552 13.8553 220.473 13.72 220.445 13.552C220.417 13.3747 220.449 13.1787 220.543 12.964L224.239 4.774C224.36 4.50333 224.505 4.312 224.673 4.2C224.85 4.07867 225.051 4.018 225.275 4.018C225.489 4.018 225.681 4.07867 225.849 4.2C226.026 4.312 226.175 4.50333 226.297 4.774L230.007 12.964C230.109 13.1787 230.147 13.3747 230.119 13.552C230.091 13.7293 230.011 13.8693 229.881 13.972C229.75 14.0653 229.577 14.112 229.363 14.112C229.101 14.112 228.896 14.0513 228.747 13.93C228.607 13.7993 228.481 13.6033 228.369 13.342L227.459 11.228L228.215 11.718H222.307L223.063 11.228L222.167 13.342C222.045 13.6127 221.919 13.8087 221.789 13.93C221.658 14.0513 221.471 14.112 221.229 14.112ZM225.247 6.076L223.287 10.738L222.923 10.29H227.599L227.249 10.738L225.275 6.076H225.247ZM192.974 30.112C192.685 30.112 192.461 30.0327 192.302 29.874C192.153 29.706 192.078 29.4773 192.078 29.188V21.082C192.078 20.774 192.157 20.5407 192.316 20.382C192.484 20.214 192.722 20.13 193.03 20.13H199.708C200.016 20.13 200.249 20.214 200.408 20.382C200.576 20.5407 200.66 20.774 200.66 21.082V29.188C200.66 29.4773 200.581 29.706 200.422 29.874C200.273 30.0327 200.053 30.112 199.764 30.112C199.475 30.112 199.251 30.0327 199.092 29.874C198.943 29.706 198.868 29.4773 198.868 29.188V21.628H193.87V29.188C193.87 29.4773 193.795 29.706 193.646 29.874C193.497 30.0327 193.273 30.112 192.974 30.112ZM207.221 30.14C206.269 30.14 205.433 29.93 204.715 29.51C204.005 29.09 203.455 28.502 203.063 27.746C202.671 26.9807 202.475 26.0847 202.475 25.058C202.475 24.2833 202.587 23.588 202.811 22.972C203.035 22.3467 203.352 21.8147 203.763 21.376C204.183 20.928 204.682 20.5873 205.261 20.354C205.849 20.1113 206.502 19.99 207.221 19.99C208.182 19.99 209.017 20.2 209.727 20.62C210.436 21.0307 210.987 21.614 211.379 22.37C211.771 23.126 211.967 24.0173 211.967 25.044C211.967 25.8187 211.855 26.5187 211.631 27.144C211.407 27.7693 211.085 28.306 210.665 28.754C210.254 29.202 209.755 29.5473 209.167 29.79C208.588 30.0233 207.939 30.14 207.221 30.14ZM207.221 28.6C207.827 28.6 208.341 28.46 208.761 28.18C209.19 27.9 209.517 27.494 209.741 26.962C209.974 26.43 210.091 25.7953 210.091 25.058C210.091 23.938 209.839 23.07 209.335 22.454C208.84 21.838 208.135 21.53 207.221 21.53C206.623 21.53 206.11 21.67 205.681 21.95C205.251 22.2207 204.92 22.622 204.687 23.154C204.463 23.6767 204.351 24.3113 204.351 25.058C204.351 26.1687 204.603 27.0367 205.107 27.662C205.611 28.2873 206.315 28.6 207.221 28.6ZM214.545 30.112C214.424 30.112 214.316 30.0933 214.223 30.056C214.13 30.0187 214.05 29.9627 213.985 29.888C213.92 29.804 213.868 29.706 213.831 29.594C213.803 29.482 213.789 29.3513 213.789 29.202V20.872C213.789 20.6013 213.859 20.3913 213.999 20.242C214.148 20.0927 214.358 20.018 214.629 20.018C214.9 20.018 215.105 20.0927 215.245 20.242C215.385 20.3913 215.455 20.6013 215.455 20.872V27.494H215.133L220.453 20.536C220.593 20.3493 220.728 20.2187 220.859 20.144C220.99 20.06 221.162 20.018 221.377 20.018C221.526 20.018 221.652 20.0507 221.755 20.116C221.867 20.1813 221.951 20.2793 222.007 20.41C222.072 20.5313 222.105 20.676 222.105 20.844V29.244C222.105 29.524 222.035 29.7387 221.895 29.888C221.755 30.0373 221.55 30.112 221.279 30.112C221.008 30.112 220.798 30.0373 220.649 29.888C220.509 29.7387 220.439 29.524 220.439 29.244V22.622H220.747L215.441 29.58C215.292 29.7667 215.156 29.902 215.035 29.986C214.923 30.07 214.76 30.112 214.545 30.112ZM217.933 19.36C217.289 19.36 216.743 19.2247 216.295 18.954C215.847 18.6833 215.516 18.3053 215.301 17.82C215.226 17.6427 215.217 17.498 215.273 17.386C215.329 17.2647 215.427 17.1807 215.567 17.134C215.716 17.0873 215.842 17.092 215.945 17.148C216.048 17.204 216.146 17.3113 216.239 17.47C216.407 17.7687 216.631 17.9973 216.911 18.156C217.191 18.3053 217.536 18.38 217.947 18.38C218.358 18.38 218.703 18.3053 218.983 18.156C219.263 17.9973 219.487 17.7687 219.655 17.47C219.748 17.3113 219.846 17.204 219.949 17.148C220.052 17.092 220.178 17.0873 220.327 17.134C220.467 17.1807 220.56 17.26 220.607 17.372C220.663 17.484 220.649 17.6287 220.565 17.806C220.322 18.2913 219.977 18.674 219.529 18.954C219.09 19.2247 218.558 19.36 217.933 19.36ZM224.178 32.422C223.916 32.422 223.716 32.352 223.576 32.212C223.445 32.072 223.38 31.8713 223.38 31.61V29.398C223.38 28.8473 223.66 28.572 224.22 28.572H225.172L224.108 28.852C224.64 28.32 225.032 27.55 225.284 26.542C225.545 25.534 225.676 24.2553 225.676 22.706V21.082C225.676 20.774 225.755 20.5407 225.914 20.382C226.082 20.214 226.32 20.13 226.628 20.13H231.71C232.018 20.13 232.251 20.214 232.41 20.382C232.578 20.5407 232.662 20.774 232.662 21.082V29.244L231.99 28.572H233.222C233.492 28.572 233.698 28.642 233.838 28.782C233.987 28.922 234.062 29.1273 234.062 29.398V31.61C234.062 32.1513 233.8 32.422 233.278 32.422C233.016 32.422 232.816 32.352 232.676 32.212C232.536 32.072 232.466 31.8713 232.466 31.61V30H224.976V31.61C224.976 32.1513 224.71 32.422 224.178 32.422ZM226.18 28.572H230.856V21.558H227.342V22.874C227.342 24.218 227.244 25.352 227.048 26.276C226.861 27.2 226.572 27.9653 226.18 28.572ZM236.397 30C236.089 30 235.851 29.9207 235.683 29.762C235.525 29.594 235.445 29.356 235.445 29.048V21.082C235.445 20.774 235.525 20.5407 235.683 20.382C235.851 20.214 236.089 20.13 236.397 20.13H241.395C241.629 20.13 241.806 20.1907 241.927 20.312C242.058 20.4333 242.123 20.606 242.123 20.83C242.123 21.0633 242.058 21.2453 241.927 21.376C241.806 21.4973 241.629 21.558 241.395 21.558H237.167V24.274H241.087C241.33 24.274 241.512 24.3347 241.633 24.456C241.755 24.5773 241.815 24.7547 241.815 24.988C241.815 25.2213 241.755 25.3987 241.633 25.52C241.512 25.6413 241.33 25.702 241.087 25.702H237.167V28.572H241.395C241.629 28.572 241.806 28.6327 241.927 28.754C242.058 28.8753 242.123 29.0527 242.123 29.286C242.123 29.5193 242.058 29.6967 241.927 29.818C241.806 29.9393 241.629 30 241.395 30H236.397ZM244.639 30.112C244.377 30.112 244.177 30.0373 244.037 29.888C243.897 29.7387 243.827 29.5333 243.827 29.272V20.858C243.827 20.5873 243.901 20.382 244.051 20.242C244.2 20.0927 244.405 20.018 244.667 20.018C244.9 20.018 245.082 20.0647 245.213 20.158C245.353 20.242 245.479 20.3913 245.591 20.606L249.049 27.004H248.601L252.059 20.606C252.171 20.3913 252.292 20.242 252.423 20.158C252.553 20.0647 252.735 20.018 252.969 20.018C253.23 20.018 253.431 20.0927 253.571 20.242C253.711 20.382 253.781 20.5873 253.781 20.858V29.272C253.781 29.5333 253.711 29.7387 253.571 29.888C253.44 30.0373 253.239 30.112 252.969 30.112C252.707 30.112 252.507 30.0373 252.367 29.888C252.227 29.7387 252.157 29.5333 252.157 29.272V22.79H252.465L249.525 28.152C249.431 28.3107 249.333 28.4273 249.231 28.502C249.128 28.5767 248.988 28.614 248.811 28.614C248.633 28.614 248.489 28.5767 248.377 28.502C248.265 28.418 248.167 28.3013 248.083 28.152L245.115 22.776H245.451V29.272C245.451 29.5333 245.381 29.7387 245.241 29.888C245.11 30.0373 244.909 30.112 244.639 30.112ZM257.997 27.144C257.82 27.144 257.68 27.088 257.577 26.976C257.484 26.8547 257.437 26.696 257.437 26.5C257.437 26.2107 257.47 25.94 257.535 25.688C257.61 25.4267 257.726 25.1653 257.885 24.904C258.044 24.6427 258.254 24.3673 258.515 24.078C258.711 23.854 258.865 23.658 258.977 23.49C259.098 23.3127 259.182 23.1447 259.229 22.986C259.285 22.8273 259.313 22.664 259.313 22.496C259.313 22.188 259.201 21.9453 258.977 21.768C258.753 21.5907 258.436 21.502 258.025 21.502C257.652 21.502 257.311 21.5533 257.003 21.656C256.704 21.7493 256.401 21.8847 256.093 22.062C255.888 22.1833 255.701 22.2393 255.533 22.23C255.374 22.2113 255.244 22.1507 255.141 22.048C255.038 21.9453 254.973 21.8193 254.945 21.67C254.917 21.5207 254.94 21.3667 255.015 21.208C255.09 21.0493 255.225 20.9047 255.421 20.774C255.804 20.522 256.242 20.3307 256.737 20.2C257.232 20.06 257.698 19.99 258.137 19.99C258.725 19.99 259.238 20.088 259.677 20.284C260.125 20.48 260.47 20.7507 260.713 21.096C260.965 21.4413 261.091 21.8473 261.091 22.314C261.091 22.6033 261.049 22.8787 260.965 23.14C260.881 23.392 260.746 23.6487 260.559 23.91C260.372 24.162 260.116 24.4373 259.789 24.736C259.5 24.9973 259.266 25.2353 259.089 25.45C258.921 25.6647 258.795 25.87 258.711 26.066C258.636 26.262 258.585 26.472 258.557 26.696C258.548 26.8267 258.492 26.934 258.389 27.018C258.296 27.102 258.165 27.144 257.997 27.144ZM257.969 30.07C257.652 30.07 257.395 29.972 257.199 29.776C257.012 29.58 256.919 29.328 256.919 29.02C256.919 28.7213 257.012 28.4787 257.199 28.292C257.395 28.096 257.652 27.998 257.969 27.998C258.296 27.998 258.548 28.096 258.725 28.292C258.912 28.4787 259.005 28.7213 259.005 29.02C259.005 29.328 258.912 29.58 258.725 29.776C258.548 29.972 258.296 30.07 257.969 30.07Z" fill="#FC3067"/>
<rect x="174" width="1" height="32" rx="0.5" fill="#FFDAE2"/>
</svg>
