<svg width="16" height="16" viewBox="0 0 16 16" fill="none" xmlns="http://www.w3.org/2000/svg">
<path fill-rule="evenodd" clip-rule="evenodd" d="M7.5952 15.9395C7.29608 15.8481 7.03416 15.6018 6.51033 15.1093C3.5715 12.3461 1 9.72783 1 6.60233C1 2.95596 4.13401 0 8 0C11.866 0 15 2.95596 15 6.60233C15 9.72783 12.4285 12.3461 9.48967 15.1093C8.96584 15.6018 8.70392 15.8481 8.4048 15.9395C8.14114 16.0202 7.85886 16.0202 7.5952 15.9395ZM8 8C9.10457 8 10 7.10457 10 6C10 4.89543 9.10457 4 8 4C6.89543 4 6 4.89543 6 6C6 7.10457 6.89543 8 8 8Z" fill="#FC3067"/>
</svg>
