<svg width="76" height="76" viewBox="0 0 76 76" fill="none" xmlns="http://www.w3.org/2000/svg">
<g clip-path="url(#clip0_1_5)">
<g clip-path="url(#clip1_1_5)">
<path d="M52.818 0.303406H22.818C10.3916 0.303406 0.318001 10.377 0.318001 22.8034V52.8034C0.318001 65.2298 10.3916 75.3034 22.818 75.3034H52.818C65.2444 75.3034 75.318 65.2298 75.318 52.8034V22.8034C75.318 10.377 65.2444 0.303406 52.818 0.303406Z" fill="#FC3067"/>
</g>
<g clip-path="url(#clip2_1_5)">
<path d="M33.0709 25.6588C30.6798 25.6588 28.5489 27.0495 27.064 29.1131C25.5432 27.0495 23.4124 25.6588 21.0213 25.6588C16.4365 25.6588 12.8162 29.1131 12.8162 35.6403V49.8836H17.1767V35.9633C17.1767 32.8634 18.2444 30.0192 21.0213 30.0192C23.7982 30.0192 24.8658 33.8324 24.8658 35.9633V49.8836H29.2263V35.9633C29.2263 33.8324 30.294 30.0192 33.0709 30.0192C35.8478 30.0192 36.9154 32.8634 36.9154 35.9633V49.8836H41.2759V35.6403C41.2759 29.1131 37.6556 25.6588 33.0709 25.6588ZM51.9348 45.5545C49.315 45.5545 45.6678 43.6165 45.2147 38.7716H62.818C62.818 31.051 58.5204 25.6588 51.7374 25.6274C45.5691 25.596 40.6299 31.051 40.6299 37.8026C40.6299 44.5541 45.5691 49.9823 52.0604 49.9823C56.228 49.9823 60.0412 47.4297 61.9791 44.1324L58.8434 41.3241C56.9727 44.424 54.8418 45.5545 51.9348 45.5545ZM51.7374 30.0506C54.2586 30.082 56.5824 31.0869 57.6187 34.4425H45.7306C46.8925 31.3426 49.6065 30.0192 51.7374 30.0506Z" fill="white"/>
</g>
</g>
<defs>
<clipPath id="clip0_1_5">
<rect width="75" height="75" fill="white" transform="translate(0.318001 0.303406)"/>
</clipPath>
<clipPath id="clip1_1_5">
<rect width="75" height="75" fill="white" transform="translate(0.318001 0.303406)"/>
</clipPath>
<clipPath id="clip2_1_5">
<rect width="50" height="50" fill="white" transform="translate(12.818 12.8034)"/>
</clipPath>
</defs>
</svg>
